<?xml version="1.0" encoding="UTF-8"?>
<!DOCTYPE svg PUBLIC "-//W3C//DTD SVG 1.1//EN"
        "http://www.w3.org/Graphics/SVG/1.1/DTD/svg11.dtd">
<svg
  xmlns="http://www.w3.org/2000/svg"
  xmlns:xlink="http://www.w3.org/1999/xlink"
  version="1.1"
  width="720pt"
  height="540pt"
  viewBox="0 0 720 540"
  >
  <rect
    x="0"
    y="0"
    width="720"
    height="540"
    stroke="none"
    fill="#000000"
    fill-opacity="1.000000"
    />
  <g
    transform="matrix(1 0 0 -1 0 540)"
    >
    <polyline
      stroke-width="1.000000e+00"
      stroke="#FF0000"
      stroke-opacity="1.000000"
      fill="none"
      points="100.79,63.00 657.00,63.00"
      />
    <polyline
      stroke-width="1.000000e+00"
      stroke="#FF0000"
      stroke-opacity="1.000000"
      fill="none"
      points="100.79,63.00 100.79,67.72"
      />
    <polyline
      stroke-width="1.000000e+00"
      stroke="#FF0000"
      stroke-opacity="1.000000"
      fill="none"
      points="131.69,63.00 131.69,67.72"
      />
    <polyline
      stroke-width="1.000000e+00"
      stroke="#FF0000"
      stroke-opacity="1.000000"
      fill="none"
      points="162.58,63.00 162.58,67.72"
      />
    <polyline
      stroke-width="1.000000e+00"
      stroke="#FF0000"
      stroke-opacity="1.000000"
      fill="none"
      points="193.50,63.00 193.50,72.45"
      />
    <polyline
      stroke-width="1.000000e+00"
      stroke="#FF0000"
      stroke-opacity="1.000000"
      fill="none"
      points="224.39,63.00 224.39,67.72"
      />
    <polyline
      stroke-width="1.000000e+00"
      stroke="#FF0000"
      stroke-opacity="1.000000"
      fill="none"
      points="255.29,63.00 255.29,67.72"
      />
    <polyline
      stroke-width="1.000000e+00"
      stroke="#FF0000"
      stroke-opacity="1.000000"
      fill="none"
      points="286.18,63.00 286.18,67.72"
      />
    <polyline
      stroke-width="1.000000e+00"
      stroke="#FF0000"
      stroke-opacity="1.000000"
      fill="none"
      points="317.10,63.00 317.10,67.72"
      />
    <polyline
      stroke-width="1.000000e+00"
      stroke="#FF0000"
      stroke-opacity="1.000000"
      fill="none"
      points="347.99,63.00 347.99,72.45"
      />
    <polyline
      stroke-width="1.000000e+00"
      stroke="#FF0000"
      stroke-opacity="1.000000"
      fill="none"
      points="378.89,63.00 378.89,67.72"
      />
    <polyline
      stroke-width="1.000000e+00"
      stroke="#FF0000"
      stroke-opacity="1.000000"
      fill="none"
      points="409.78,63.00 409.78,67.72"
      />
    <polyline
      stroke-width="1.000000e+00"
      stroke="#FF0000"
      stroke-opacity="1.000000"
      fill="none"
      points="440.70,63.00 440.70,67.72"
      />
    <polyline
      stroke-width="1.000000e+00"
      stroke="#FF0000"
      stroke-opacity="1.000000"
      fill="none"
      points="471.59,63.00 471.59,67.72"
      />
    <polyline
      stroke-width="1.000000e+00"
      stroke="#FF0000"
      stroke-opacity="1.000000"
      fill="none"
      points="502.49,63.00 502.49,72.45"
      />
    <polyline
      stroke-width="1.000000e+00"
      stroke="#FF0000"
      stroke-opacity="1.000000"
      fill="none"
      points="533.38,63.00 533.38,67.72"
      />
    <polyline
      stroke-width="1.000000e+00"
      stroke="#FF0000"
      stroke-opacity="1.000000"
      fill="none"
      points="564.30,63.00 564.30,67.72"
      />
    <polyline
      stroke-width="1.000000e+00"
      stroke="#FF0000"
      stroke-opacity="1.000000"
      fill="none"
      points="595.19,63.00 595.19,67.72"
      />
    <polyline
      stroke-width="1.000000e+00"
      stroke="#FF0000"
      stroke-opacity="1.000000"
      fill="none"
      points="626.09,63.00 626.09,67.72"
      />
    <polyline
      stroke-width="1.000000e+00"
      stroke="#FF0000"
      stroke-opacity="1.000000"
      fill="none"
      points="656.98,63.00 656.98,72.45"
      />
    <polyline
      stroke-width="1.000000e+00"
      stroke="#FF0000"
      stroke-opacity="1.000000"
      fill="none"
      points="657.00,63.00 657.00,477.00"
      />
    <polyline
      stroke-width="1.000000e+00"
      stroke="#FF0000"
      stroke-opacity="1.000000"
      fill="none"
      points="652.28,63.00 657.00,63.00"
      />
    <polyline
      stroke-width="1.000000e+00"
      stroke="#FF0000"
      stroke-opacity="1.000000"
      fill="none"
      points="652.28,83.70 657.00,83.70"
      />
    <polyline
      stroke-width="1.000000e+00"
      stroke="#FF0000"
      stroke-opacity="1.000000"
      fill="none"
      points="647.55,104.40 657.00,104.40"
      />
    <polyline
      stroke-width="1.000000e+00"
      stroke="#FF0000"
      stroke-opacity="1.000000"
      fill="none"
      points="652.28,125.09 657.00,125.09"
      />
    <polyline
      stroke-width="1.000000e+00"
      stroke="#FF0000"
      stroke-opacity="1.000000"
      fill="none"
      points="652.28,145.79 657.00,145.79"
      />
    <polyline
      stroke-width="1.000000e+00"
      stroke="#FF0000"
      stroke-opacity="1.000000"
      fill="none"
      points="652.28,166.49 657.00,166.49"
      />
    <polyline
      stroke-width="1.000000e+00"
      stroke="#FF0000"
      stroke-opacity="1.000000"
      fill="none"
      points="647.55,187.19 657.00,187.19"
      />
    <polyline
      stroke-width="1.000000e+00"
      stroke="#FF0000"
      stroke-opacity="1.000000"
      fill="none"
      points="652.28,207.89 657.00,207.89"
      />
    <polyline
      stroke-width="1.000000e+00"
      stroke="#FF0000"
      stroke-opacity="1.000000"
      fill="none"
      points="652.28,228.59 657.00,228.59"
      />
    <polyline
      stroke-width="1.000000e+00"
      stroke="#FF0000"
      stroke-opacity="1.000000"
      fill="none"
      points="652.28,249.29 657.00,249.29"
      />
    <polyline
      stroke-width="1.000000e+00"
      stroke="#FF0000"
      stroke-opacity="1.000000"
      fill="none"
      points="647.55,269.99 657.00,269.99"
      />
    <polyline
      stroke-width="1.000000e+00"
      stroke="#FF0000"
      stroke-opacity="1.000000"
      fill="none"
      points="652.28,290.69 657.00,290.69"
      />
    <polyline
      stroke-width="1.000000e+00"
      stroke="#FF0000"
      stroke-opacity="1.000000"
      fill="none"
      points="652.28,311.38 657.00,311.38"
      />
    <polyline
      stroke-width="1.000000e+00"
      stroke="#FF0000"
      stroke-opacity="1.000000"
      fill="none"
      points="652.28,332.08 657.00,332.08"
      />
    <polyline
      stroke-width="1.000000e+00"
      stroke="#FF0000"
      stroke-opacity="1.000000"
      fill="none"
      points="647.55,352.78 657.00,352.78"
      />
    <polyline
      stroke-width="1.000000e+00"
      stroke="#FF0000"
      stroke-opacity="1.000000"
      fill="none"
      points="652.28,373.48 657.00,373.48"
      />
    <polyline
      stroke-width="1.000000e+00"
      stroke="#FF0000"
      stroke-opacity="1.000000"
      fill="none"
      points="652.28,394.18 657.00,394.18"
      />
    <polyline
      stroke-width="1.000000e+00"
      stroke="#FF0000"
      stroke-opacity="1.000000"
      fill="none"
      points="652.28,414.88 657.00,414.88"
      />
    <polyline
      stroke-width="1.000000e+00"
      stroke="#FF0000"
      stroke-opacity="1.000000"
      fill="none"
      points="647.55,435.60 657.00,435.60"
      />
    <polyline
      stroke-width="1.000000e+00"
      stroke="#FF0000"
      stroke-opacity="1.000000"
      fill="none"
      points="652.28,456.30 657.00,456.30"
      />
    <polyline
      stroke-width="1.000000e+00"
      stroke="#FF0000"
      stroke-opacity="1.000000"
      fill="none"
      points="652.28,477.00 657.00,477.00"
      />
    <polyline
      stroke-width="1.000000e+00"
      stroke="#FF0000"
      stroke-opacity="1.000000"
      fill="none"
      points="657.00,477.00 100.79,477.00"
      />
    <polyline
      stroke-width="1.000000e+00"
      stroke="#FF0000"
      stroke-opacity="1.000000"
      fill="none"
      points="656.98,467.55 656.98,477.00"
      />
    <polyline
      stroke-width="1.000000e+00"
      stroke="#FF0000"
      stroke-opacity="1.000000"
      fill="none"
      points="626.09,472.27 626.09,477.00"
      />
    <polyline
      stroke-width="1.000000e+00"
      stroke="#FF0000"
      stroke-opacity="1.000000"
      fill="none"
      points="595.19,472.27 595.19,477.00"
      />
    <polyline
      stroke-width="1.000000e+00"
      stroke="#FF0000"
      stroke-opacity="1.000000"
      fill="none"
      points="564.30,472.27 564.30,477.00"
      />
    <polyline
      stroke-width="1.000000e+00"
      stroke="#FF0000"
      stroke-opacity="1.000000"
      fill="none"
      points="533.38,472.27 533.38,477.00"
      />
    <polyline
      stroke-width="1.000000e+00"
      stroke="#FF0000"
      stroke-opacity="1.000000"
      fill="none"
      points="502.49,467.55 502.49,477.00"
      />
    <polyline
      stroke-width="1.000000e+00"
      stroke="#FF0000"
      stroke-opacity="1.000000"
      fill="none"
      points="471.59,472.27 471.59,477.00"
      />
    <polyline
      stroke-width="1.000000e+00"
      stroke="#FF0000"
      stroke-opacity="1.000000"
      fill="none"
      points="440.70,472.27 440.70,477.00"
      />
    <polyline
      stroke-width="1.000000e+00"
      stroke="#FF0000"
      stroke-opacity="1.000000"
      fill="none"
      points="409.78,472.27 409.78,477.00"
      />
    <polyline
      stroke-width="1.000000e+00"
      stroke="#FF0000"
      stroke-opacity="1.000000"
      fill="none"
      points="378.89,472.27 378.89,477.00"
      />
    <polyline
      stroke-width="1.000000e+00"
      stroke="#FF0000"
      stroke-opacity="1.000000"
      fill="none"
      points="347.99,467.55 347.99,477.00"
      />
    <polyline
      stroke-width="1.000000e+00"
      stroke="#FF0000"
      stroke-opacity="1.000000"
      fill="none"
      points="317.10,472.27 317.10,477.00"
      />
    <polyline
      stroke-width="1.000000e+00"
      stroke="#FF0000"
      stroke-opacity="1.000000"
      fill="none"
      points="286.18,472.27 286.18,477.00"
      />
    <polyline
      stroke-width="1.000000e+00"
      stroke="#FF0000"
      stroke-opacity="1.000000"
      fill="none"
      points="255.29,472.27 255.29,477.00"
      />
    <polyline
      stroke-width="1.000000e+00"
      stroke="#FF0000"
      stroke-opacity="1.000000"
      fill="none"
      points="224.39,472.27 224.39,477.00"
      />
    <polyline
      stroke-width="1.000000e+00"
      stroke="#FF0000"
      stroke-opacity="1.000000"
      fill="none"
      points="193.50,467.55 193.50,477.00"
      />
    <polyline
      stroke-width="1.000000e+00"
      stroke="#FF0000"
      stroke-opacity="1.000000"
      fill="none"
      points="162.58,472.27 162.58,477.00"
      />
    <polyline
      stroke-width="1.000000e+00"
      stroke="#FF0000"
      stroke-opacity="1.000000"
      fill="none"
      points="131.69,472.27 131.69,477.00"
      />
    <polyline
      stroke-width="1.000000e+00"
      stroke="#FF0000"
      stroke-opacity="1.000000"
      fill="none"
      points="100.79,472.27 100.79,477.00"
      />
    <polyline
      stroke-width="1.000000e+00"
      stroke="#FF0000"
      stroke-opacity="1.000000"
      fill="none"
      points="100.79,477.00 100.79,63.00"
      />
    <polyline
      stroke-width="1.000000e+00"
      stroke="#FF0000"
      stroke-opacity="1.000000"
      fill="none"
      points="100.79,477.00 105.52,477.00"
      />
    <polyline
      stroke-width="1.000000e+00"
      stroke="#FF0000"
      stroke-opacity="1.000000"
      fill="none"
      points="100.79,456.30 105.52,456.30"
      />
    <polyline
      stroke-width="1.000000e+00"
      stroke="#FF0000"
      stroke-opacity="1.000000"
      fill="none"
      points="100.79,435.60 110.24,435.60"
      />
    <polyline
      stroke-width="1.000000e+00"
      stroke="#FF0000"
      stroke-opacity="1.000000"
      fill="none"
      points="100.79,414.88 105.52,414.88"
      />
    <polyline
      stroke-width="1.000000e+00"
      stroke="#FF0000"
      stroke-opacity="1.000000"
      fill="none"
      points="100.79,394.18 105.52,394.18"
      />
    <polyline
      stroke-width="1.000000e+00"
      stroke="#FF0000"
      stroke-opacity="1.000000"
      fill="none"
      points="100.79,373.48 105.52,373.48"
      />
    <polyline
      stroke-width="1.000000e+00"
      stroke="#FF0000"
      stroke-opacity="1.000000"
      fill="none"
      points="100.79,352.78 110.24,352.78"
      />
    <polyline
      stroke-width="1.000000e+00"
      stroke="#FF0000"
      stroke-opacity="1.000000"
      fill="none"
      points="100.79,332.08 105.52,332.08"
      />
    <polyline
      stroke-width="1.000000e+00"
      stroke="#FF0000"
      stroke-opacity="1.000000"
      fill="none"
      points="100.79,311.38 105.52,311.38"
      />
    <polyline
      stroke-width="1.000000e+00"
      stroke="#FF0000"
      stroke-opacity="1.000000"
      fill="none"
      points="100.79,290.69 105.52,290.69"
      />
    <polyline
      stroke-width="1.000000e+00"
      stroke="#FF0000"
      stroke-opacity="1.000000"
      fill="none"
      points="100.79,269.99 110.24,269.99"
      />
    <polyline
      stroke-width="1.000000e+00"
      stroke="#FF0000"
      stroke-opacity="1.000000"
      fill="none"
      points="100.79,249.29 105.52,249.29"
      />
    <polyline
      stroke-width="1.000000e+00"
      stroke="#FF0000"
      stroke-opacity="1.000000"
      fill="none"
      points="100.79,228.59 105.52,228.59"
      />
    <polyline
      stroke-width="1.000000e+00"
      stroke="#FF0000"
      stroke-opacity="1.000000"
      fill="none"
      points="100.79,207.89 105.52,207.89"
      />
    <polyline
      stroke-width="1.000000e+00"
      stroke="#FF0000"
      stroke-opacity="1.000000"
      fill="none"
      points="100.79,187.19 110.24,187.19"
      />
    <polyline
      stroke-width="1.000000e+00"
      stroke="#FF0000"
      stroke-opacity="1.000000"
      fill="none"
      points="100.79,166.49 105.52,166.49"
      />
    <polyline
      stroke-width="1.000000e+00"
      stroke="#FF0000"
      stroke-opacity="1.000000"
      fill="none"
      points="100.79,145.79 105.52,145.79"
      />
    <polyline
      stroke-width="1.000000e+00"
      stroke="#FF0000"
      stroke-opacity="1.000000"
      fill="none"
      points="100.79,125.09 105.52,125.09"
      />
    <polyline
      stroke-width="1.000000e+00"
      stroke="#FF0000"
      stroke-opacity="1.000000"
      fill="none"
      points="100.79,104.40 110.24,104.40"
      />
    <polyline
      stroke-width="1.000000e+00"
      stroke="#FF0000"
      stroke-opacity="1.000000"
      fill="none"
      points="100.79,83.70 105.52,83.70"
      />
    <polyline
      stroke-width="1.000000e+00"
      stroke="#FF0000"
      stroke-opacity="1.000000"
      fill="none"
      points="100.79,63.00 105.52,63.00"
      />
    <clipPath
      id="text-clipping0"
      >
      <polygon
        points="0.000000,0.000000 0.000000,539.994507 720.000000,539.994507 720.000000,0.000000"
        />
    </clipPath>
    <g
      clip-path="url(#text-clipping0)"
      >
      <text
        dominant-baseline="no-change"
        fill="#FF0000"
        fill-opacity="1.000000"
        xml:space="preserve"
        font-size="16"
        transform="matrix(1.000000 0.000000 0.000000 -1.000000 193.497116 44.100467)"
        text-anchor="middle"
        x="0.000000"
        y="6.451584"
><tspan font-family="sans-serif" font-style="normal" font-weight="normal">&#x30;</tspan></text>
    </g>
    <g
      clip-path="url(#text-clipping0)"
      >
      <text
        dominant-baseline="no-change"
        fill="#FF0000"
        fill-opacity="1.000000"
        xml:space="preserve"
        font-size="16"
        transform="matrix(1.000000 0.000000 0.000000 -1.000000 347.991577 44.100467)"
        text-anchor="middle"
        x="0.000000"
        y="6.451584"
><tspan font-family="sans-serif" font-style="normal" font-weight="normal">&#x35;</tspan></text>
    </g>
    <g
      clip-path="url(#text-clipping0)"
      >
      <text
        dominant-baseline="no-change"
        fill="#FF0000"
        fill-opacity="1.000000"
        xml:space="preserve"
        font-size="16"
        transform="matrix(1.000000 0.000000 0.000000 -1.000000 502.508011 44.100467)"
        text-anchor="middle"
        x="0.000000"
        y="6.451584"
><tspan font-family="sans-serif" font-style="normal" font-weight="normal">&#x31;&#x30;</tspan></text>
    </g>
    <g
      clip-path="url(#text-clipping0)"
      >
      <text
        dominant-baseline="no-change"
        fill="#FF0000"
        fill-opacity="1.000000"
        xml:space="preserve"
        font-size="16"
        transform="matrix(1.000000 0.000000 0.000000 -1.000000 657.002472 44.100467)"
        text-anchor="middle"
        x="0.000000"
        y="6.451584"
><tspan font-family="sans-serif" font-style="normal" font-weight="normal">&#x31;&#x35;</tspan></text>
    </g>
    <g
      clip-path="url(#text-clipping0)"
      >
      <text
        dominant-baseline="no-change"
        fill="#FF0000"
        fill-opacity="1.000000"
        xml:space="preserve"
        font-size="16"
        transform="matrix(1.000000 0.000000 0.000000 -1.000000 94.507279 104.395276)"
        text-anchor="end"
        x="0.000000"
        y="6.451584"
><tspan font-family="sans-serif" font-style="normal" font-weight="normal">&#x2d;&#x34;</tspan></text>
    </g>
    <g
      clip-path="url(#text-clipping0)"
      >
      <text
        dominant-baseline="no-change"
        fill="#FF0000"
        fill-opacity="1.000000"
        xml:space="preserve"
        font-size="16"
        transform="matrix(1.000000 0.000000 0.000000 -1.000000 94.507279 187.190771)"
        text-anchor="end"
        x="0.000000"
        y="6.451584"
><tspan font-family="sans-serif" font-style="normal" font-weight="normal">&#x2d;&#x32;</tspan></text>
    </g>
    <g
      clip-path="url(#text-clipping0)"
      >
      <text
        dominant-baseline="no-change"
        fill="#FF0000"
        fill-opacity="1.000000"
        xml:space="preserve"
        font-size="16"
        transform="matrix(1.000000 0.000000 0.000000 -1.000000 94.507279 270.008240)"
        text-anchor="end"
        x="0.000000"
        y="6.451584"
><tspan font-family="sans-serif" font-style="normal" font-weight="normal">&#x30;</tspan></text>
    </g>
    <g
      clip-path="url(#text-clipping0)"
      >
      <text
        dominant-baseline="no-change"
        fill="#FF0000"
        fill-opacity="1.000000"
        xml:space="preserve"
        font-size="16"
        transform="matrix(1.000000 0.000000 0.000000 -1.000000 94.507279 352.803735)"
        text-anchor="end"
        x="0.000000"
        y="6.451584"
><tspan font-family="sans-serif" font-style="normal" font-weight="normal">&#x32;</tspan></text>
    </g>
    <g
      clip-path="url(#text-clipping0)"
      >
      <text
        dominant-baseline="no-change"
        fill="#FF0000"
        fill-opacity="1.000000"
        xml:space="preserve"
        font-size="16"
        transform="matrix(1.000000 0.000000 0.000000 -1.000000 94.507279 435.599231)"
        text-anchor="end"
        x="0.000000"
        y="6.451584"
><tspan font-family="sans-serif" font-style="normal" font-weight="normal">&#x34;</tspan></text>
    </g>
    <g
      clip-path="url(#text-clipping0)"
      >
      <text
        dominant-baseline="no-change"
        fill="#FF0000"
        fill-opacity="1.000000"
        xml:space="preserve"
        font-size="16"
        transform="matrix(1.000000 0.000000 0.000000 -1.000000 378.908048 502.200385)"
        text-anchor="middle"
        x="0.000000"
        y="6.451584"
><tspan font-family="sans-serif" font-style="normal" font-weight="normal">&#x32;&#x44;&#x20;&#x72;&#x61;&#x79;&#x2d;&#x74;&#x72;&#x61;&#x63;&#x69;&#x6e;&#x67;&#x20;&#x70;&#x6c;&#x6f;&#x74;</tspan></text>
    </g>
    <g
      clip-path="url(#text-clipping0)"
      >
      <text
        dominant-baseline="no-change"
        fill="#FF0000"
        fill-opacity="1.000000"
        xml:space="preserve"
        font-size="16"
        transform="matrix(1.000000 0.000000 0.000000 -1.000000 378.908048 22.676473)"
        text-anchor="middle"
        x="0.000000"
        y="6.451584"
><tspan font-family="sans-serif" font-style="normal" font-weight="normal">&#x7a;</tspan></text>
    </g>
    <g
      clip-path="url(#text-clipping0)"
      >
      <text
        dominant-baseline="no-change"
        fill="#FF0000"
        fill-opacity="1.000000"
        xml:space="preserve"
        font-size="16"
        transform="matrix(0.000000 1.000000 1.000000 -0.000000 37.794122 270.008240)"
        text-anchor="middle"
        x="0.000000"
        y="6.451584"
><tspan font-family="sans-serif" font-style="normal" font-weight="normal">&#x79;</tspan></text>
    </g>
    <polyline
      stroke-width="1.000000e+00"
      stroke="#FF0000"
      stroke-opacity="1.000000"
      fill="none"
      points="142.98,145.79 142.83,146.63 142.67,147.46 142.52,148.28 142.37,149.11 142.23,149.95 142.08,150.78 141.93,151.62 141.79,152.45 141.64,153.26 
      141.51,154.10 141.35,154.93 141.22,155.77 141.07,156.60 140.94,157.42 140.81,158.25 140.67,159.09 140.52,159.92 140.39,160.76 140.26,161.57 
      140.12,162.40 139.99,163.24 139.86,164.07 139.73,164.91 139.62,165.72 139.49,166.56 139.35,167.39 139.22,168.23 139.11,169.06 138.98,169.88 
      138.87,170.71 138.74,171.55 138.63,172.38 138.50,173.22 138.39,174.05 138.28,174.86 138.15,175.70 138.04,176.53 137.93,177.37 137.82,178.20 
      137.71,179.02 137.60,179.85 137.49,180.69 137.38,181.52 137.27,182.36 137.16,183.17 137.05,184.00 136.96,184.84 136.85,185.67 136.74,186.51 
      136.65,187.32 136.54,188.16 136.45,188.99 136.34,189.83 136.26,190.66 136.17,191.48 136.06,192.31 135.97,193.15 135.88,193.98 135.80,194.82 
      135.71,195.65 135.60,196.46 135.51,197.30 135.42,198.13 135.36,198.97 135.27,199.80 135.18,200.62 135.09,201.45 135.00,202.29 134.94,203.12 
      134.85,203.96 134.76,204.77 134.70,205.60 134.61,206.44 134.54,207.27 134.45,208.11 134.39,208.92 134.32,209.76 134.24,210.59 134.17,211.43 
      134.10,212.26 134.04,213.08 133.97,213.91 133.91,214.75 133.84,215.58 133.77,216.42 133.71,217.23 133.64,218.06 133.58,218.90 133.51,219.73 
      133.47,220.57 133.40,221.40 133.33,222.22 133.29,223.05 133.22,223.89 133.18,224.72 133.11,225.56 133.07,226.37 133.00,227.20 132.96,228.04 
      132.92,228.87 132.87,229.71 132.81,230.52 132.76,231.36 132.72,232.19 132.67,233.03 132.63,233.86 132.59,234.68 132.54,235.51 132.50,236.35 
      132.48,237.18 132.43,238.02 132.39,238.83 132.35,239.66 132.32,240.50 132.28,241.33 132.26,242.17 132.21,243.00 132.19,243.82 132.15,244.65 
      132.13,245.49 132.10,246.32 132.06,247.16 132.04,247.97 132.02,248.80 131.99,249.64 131.97,250.47 131.95,251.31 131.93,252.12 131.91,252.96 
      131.88,253.79 131.86,254.63 131.84,255.46 131.82,256.27 131.82,257.11 131.80,257.94 131.77,258.78 131.77,259.61 131.75,260.43 131.75,261.26 
      131.73,262.10 131.73,262.93 131.71,263.77 131.71,264.60 131.71,265.42 131.71,266.25 131.69,267.09 131.69,267.92 131.69,268.76 131.69,269.57 
      131.69,270.40 131.69,271.24 131.69,272.07 131.69,272.91 131.71,273.72 131.71,274.56 131.71,275.39 131.71,276.23 131.73,277.06 131.73,277.87 
      131.75,278.71 131.75,279.54 131.77,280.38 131.77,281.21 131.80,282.03 131.82,282.86 131.82,283.70 131.84,284.53 131.86,285.37 131.88,286.18 
      131.91,287.02 131.93,287.85 131.95,288.69 131.97,289.52 131.99,290.36 132.02,291.17 132.04,292.00 132.06,292.84 132.10,293.67 132.13,294.51 
      132.15,295.32 132.19,296.16 132.21,296.99 132.26,297.83 132.28,298.66 132.32,299.47 132.35,300.31 132.39,301.14 132.43,301.98 132.48,302.81 
      132.50,303.63 132.54,304.46 132.59,305.30 132.63,306.13 132.67,306.97 132.72,307.78 132.76,308.62 132.81,309.45 132.87,310.29 132.92,311.12 
      132.96,311.96 133.00,312.77 133.07,313.60 133.11,314.44 133.18,315.27 133.22,316.11 133.29,316.92 133.33,317.76 133.40,318.59 133.47,319.43 
      133.51,320.26 133.58,321.07 133.64,321.91 133.71,322.74 133.77,323.58 133.84,324.41 133.91,325.23 133.97,326.06 134.04,326.90 134.10,327.73 
      134.17,328.57 134.24,329.38 134.32,330.22 134.39,331.05 134.45,331.89 134.54,332.72 134.61,333.56 134.70,334.37 134.76,335.20 134.85,336.04 
      134.94,336.87 135.00,337.71 135.09,338.52 135.18,339.36 135.27,340.19 135.36,341.03 135.42,341.86 135.51,342.67 135.60,343.51 135.71,344.34 
      135.80,345.18 135.88,346.01 135.97,346.83 136.06,347.66 136.17,348.50 136.26,349.33 136.34,350.17 136.45,350.98 136.54,351.81 136.65,352.65 
      136.74,353.48 136.85,354.32 136.96,355.13 137.05,355.97 137.16,356.80 137.27,357.64 "/>
    <polyline
      stroke-width="1.000000e+00"
      stroke="#FF0000"
      stroke-opacity="1.000000"
      fill="none"
      points="137.27,357.64 137.38,358.47 137.49,359.31 137.60,360.12 137.71,360.96 137.82,361.79 137.93,362.63 138.04,363.46 138.15,364.27 138.28,365.11 
      138.39,365.94 138.50,366.78 138.63,367.61 138.74,368.43 138.87,369.26 138.98,370.10 139.11,370.93 139.22,371.77 139.35,372.58 139.49,373.41 
      139.62,374.25 139.73,375.08 139.86,375.92 139.99,376.73 140.12,377.57 140.26,378.40 140.39,379.24 140.52,380.07 140.67,380.91 140.81,381.72 
      140.94,382.56 141.07,383.39 141.22,384.23 141.35,385.06 141.51,385.87 141.64,386.71 141.79,387.54 141.93,388.38 142.08,389.21 142.23,390.03 
      142.37,390.86 142.52,391.70 142.67,392.53 142.83,393.37 142.98,394.18 "/>
    <g
      clip-path="url(#text-clipping0)"
      >
      <text
        dominant-baseline="no-change"
        fill="#FF0000"
        fill-opacity="1.000000"
        xml:space="preserve"
        font-size="16"
        transform="matrix(1.000000 0.000000 0.000000 -1.000000 378.908048 502.200385)"
        text-anchor="middle"
        x="0.000000"
        y="6.451584"
><tspan font-family="sans-serif" font-style="normal" font-weight="normal">&#x32;&#x44;&#x20;&#x72;&#x61;&#x79;&#x2d;&#x74;&#x72;&#x61;&#x63;&#x69;&#x6e;&#x67;&#x20;&#x70;&#x6c;&#x6f;&#x74;</tspan></text>
    </g>
    <g
      clip-path="url(#text-clipping0)"
      >
      <text
        dominant-baseline="no-change"
        fill="#FF0000"
        fill-opacity="1.000000"
        xml:space="preserve"
        font-size="16"
        transform="matrix(1.000000 0.000000 0.000000 -1.000000 378.908048 22.676473)"
        text-anchor="middle"
        x="0.000000"
        y="6.451584"
><tspan font-family="sans-serif" font-style="normal" font-weight="normal">&#x7a;</tspan></text>
    </g>
    <g
      clip-path="url(#text-clipping0)"
      >
      <text
        dominant-baseline="no-change"
        fill="#FF0000"
        fill-opacity="1.000000"
        xml:space="preserve"
        font-size="16"
        transform="matrix(0.000000 1.000000 1.000000 -0.000000 37.794122 270.008240)"
        text-anchor="middle"
        x="0.000000"
        y="6.451584"
><tspan font-family="sans-serif" font-style="normal" font-weight="normal">&#x79;</tspan></text>
    </g>
    <polyline
      stroke-width="1.000000e+00"
      stroke="#FF0000"
      stroke-opacity="1.000000"
      fill="none"
      points="243.99,145.79 244.15,146.63 244.30,147.46 244.45,148.28 244.61,149.11 244.76,149.95 244.89,150.78 245.05,151.62 245.20,152.45 245.33,153.26 
      245.49,154.10 245.62,154.93 245.77,155.77 245.90,156.60 246.04,157.42 246.19,158.25 246.32,159.09 246.45,159.92 246.58,160.76 246.72,161.57 
      246.85,162.40 246.98,163.24 247.11,164.07 247.24,164.91 247.38,165.72 247.49,166.56 247.62,167.39 247.75,168.23 247.88,169.06 247.99,169.88 
      248.12,170.71 248.23,171.55 248.36,172.38 248.47,173.22 248.58,174.05 248.72,174.86 248.83,175.70 248.94,176.53 249.05,177.37 249.16,178.20 
      249.27,179.02 249.38,179.85 249.49,180.69 249.60,181.52 249.70,182.36 249.81,183.17 249.92,184.00 250.03,184.84 250.12,185.67 250.23,186.51 
      250.32,187.32 250.43,188.16 250.52,188.99 250.63,189.83 250.72,190.66 250.83,191.48 250.91,192.31 251.00,193.15 251.09,193.98 251.20,194.82 
      251.29,195.65 251.37,196.46 251.46,197.30 251.55,198.13 251.64,198.97 251.73,199.80 251.81,200.62 251.88,201.45 251.97,202.29 252.06,203.12 
      252.12,203.96 252.21,204.77 252.30,205.60 252.36,206.44 252.45,207.27 252.52,208.11 252.58,208.92 252.67,209.76 252.74,210.59 252.80,211.43 
      252.87,212.26 252.96,213.08 253.02,213.91 253.09,214.75 253.15,215.58 253.22,216.42 253.29,217.23 253.33,218.06 253.40,218.90 253.46,219.73 
      253.53,220.57 253.57,221.40 253.64,222.22 253.70,223.05 253.75,223.89 253.81,224.72 253.86,225.56 253.92,226.37 253.97,227.20 254.01,228.04 
      254.08,228.87 254.12,229.71 254.17,230.52 254.21,231.36 254.25,232.19 254.30,233.03 254.34,233.86 254.39,234.68 254.43,235.51 254.47,236.35 
      254.52,237.18 254.56,238.02 254.58,238.83 254.63,239.66 254.67,240.50 254.69,241.33 254.74,242.17 254.76,243.00 254.80,243.82 254.82,244.65 
      254.85,245.49 254.89,246.32 254.91,247.16 254.93,247.97 254.96,248.80 255.00,249.64 255.02,250.47 255.04,251.31 255.07,252.12 255.09,252.96 
      255.11,253.79 255.11,254.63 255.13,255.46 255.15,256.27 255.18,257.11 255.18,257.94 255.20,258.78 255.22,259.61 255.22,260.43 255.24,261.26 
      255.24,262.10 255.26,262.93 255.26,263.77 255.26,264.60 255.26,265.42 255.29,266.25 255.29,267.09 255.29,267.92 255.29,268.76 255.29,269.57 
      255.29,270.40 255.29,271.24 255.29,272.07 255.29,272.91 255.29,273.72 255.26,274.56 255.26,275.39 255.26,276.23 255.26,277.06 255.24,277.87 
      255.24,278.71 255.22,279.54 255.22,280.38 255.20,281.21 255.18,282.03 255.18,282.86 255.15,283.70 255.13,284.53 255.11,285.37 255.11,286.18 
      255.09,287.02 255.07,287.85 255.04,288.69 255.02,289.52 255.00,290.36 254.96,291.17 254.93,292.00 254.91,292.84 254.89,293.67 254.85,294.51 
      254.82,295.32 254.80,296.16 254.76,296.99 254.74,297.83 254.69,298.66 254.67,299.47 254.63,300.31 254.58,301.14 254.56,301.98 254.52,302.81 
      254.47,303.63 254.43,304.46 254.39,305.30 254.34,306.13 254.30,306.97 254.25,307.78 254.21,308.62 254.17,309.45 254.12,310.29 254.08,311.12 
      254.01,311.96 253.97,312.77 253.92,313.60 253.86,314.44 253.81,315.27 253.75,316.11 253.70,316.92 253.64,317.76 253.57,318.59 253.53,319.43 
      253.46,320.26 253.40,321.07 253.33,321.91 253.29,322.74 253.22,323.58 253.15,324.41 253.09,325.23 253.02,326.06 252.96,326.90 252.87,327.73 
      252.80,328.57 252.74,329.38 252.67,330.22 252.58,331.05 252.52,331.89 252.45,332.72 252.36,333.56 252.30,334.37 252.21,335.20 252.12,336.04 
      252.06,336.87 251.97,337.71 251.88,338.52 251.81,339.36 251.73,340.19 251.64,341.03 251.55,341.86 251.46,342.67 251.37,343.51 251.29,344.34 
      251.20,345.18 251.09,346.01 251.00,346.83 250.91,347.66 250.83,348.50 250.72,349.33 250.63,350.17 250.52,350.98 250.43,351.81 250.32,352.65 
      250.23,353.48 250.12,354.32 250.03,355.13 249.92,355.97 249.81,356.80 249.70,357.64 "/>
    <polyline
      stroke-width="1.000000e+00"
      stroke="#FF0000"
      stroke-opacity="1.000000"
      fill="none"
      points="249.70,357.64 249.60,358.47 249.49,359.31 249.38,360.12 249.27,360.96 249.16,361.79 249.05,362.63 248.94,363.46 248.83,364.27 248.72,365.11 
      248.58,365.94 248.47,366.78 248.36,367.61 248.23,368.43 248.12,369.26 247.99,370.10 247.88,370.93 247.75,371.77 247.62,372.58 247.49,373.41 
      247.38,374.25 247.24,375.08 247.11,375.92 246.98,376.73 246.85,377.57 246.72,378.40 246.58,379.24 246.45,380.07 246.32,380.91 246.19,381.72 
      246.04,382.56 245.90,383.39 245.77,384.23 245.62,385.06 245.49,385.87 245.33,386.71 245.20,387.54 245.05,388.38 244.89,389.21 244.76,390.03 
      244.61,390.86 244.45,391.70 244.30,392.53 244.15,393.37 243.99,394.18 "/>
    <g
      clip-path="url(#text-clipping0)"
      >
      <text
        dominant-baseline="no-change"
        fill="#FF0000"
        fill-opacity="1.000000"
        xml:space="preserve"
        font-size="16"
        transform="matrix(1.000000 0.000000 0.000000 -1.000000 378.908048 502.200385)"
        text-anchor="middle"
        x="0.000000"
        y="6.451584"
><tspan font-family="sans-serif" font-style="normal" font-weight="normal">&#x32;&#x44;&#x20;&#x72;&#x61;&#x79;&#x2d;&#x74;&#x72;&#x61;&#x63;&#x69;&#x6e;&#x67;&#x20;&#x70;&#x6c;&#x6f;&#x74;</tspan></text>
    </g>
    <g
      clip-path="url(#text-clipping0)"
      >
      <text
        dominant-baseline="no-change"
        fill="#FF0000"
        fill-opacity="1.000000"
        xml:space="preserve"
        font-size="16"
        transform="matrix(1.000000 0.000000 0.000000 -1.000000 378.908048 22.676473)"
        text-anchor="middle"
        x="0.000000"
        y="6.451584"
><tspan font-family="sans-serif" font-style="normal" font-weight="normal">&#x7a;</tspan></text>
    </g>
    <g
      clip-path="url(#text-clipping0)"
      >
      <text
        dominant-baseline="no-change"
        fill="#FF0000"
        fill-opacity="1.000000"
        xml:space="preserve"
        font-size="16"
        transform="matrix(0.000000 1.000000 1.000000 -0.000000 37.794122 270.008240)"
        text-anchor="middle"
        x="0.000000"
        y="6.451584"
><tspan font-family="sans-serif" font-style="normal" font-weight="normal">&#x79;</tspan></text>
    </g>
    <polyline
      stroke-width="1.000000e+00"
      stroke="#FF0000"
      stroke-opacity="1.000000"
      fill="none"
      points="100.79,311.38 132.92,311.38 254.30,307.03 657.00,265.83 "/>
    <g
      clip-path="url(#text-clipping0)"
      >
      <text
        dominant-baseline="no-change"
        fill="#FF0000"
        fill-opacity="1.000000"
        xml:space="preserve"
        font-size="16"
        transform="matrix(1.000000 0.000000 0.000000 -1.000000 378.908048 502.200385)"
        text-anchor="middle"
        x="0.000000"
        y="6.451584"
><tspan font-family="sans-serif" font-style="normal" font-weight="normal">&#x32;&#x44;&#x20;&#x72;&#x61;&#x79;&#x2d;&#x74;&#x72;&#x61;&#x63;&#x69;&#x6e;&#x67;&#x20;&#x70;&#x6c;&#x6f;&#x74;</tspan></text>
    </g>
    <g
      clip-path="url(#text-clipping0)"
      >
      <text
        dominant-baseline="no-change"
        fill="#FF0000"
        fill-opacity="1.000000"
        xml:space="preserve"
        font-size="16"
        transform="matrix(1.000000 0.000000 0.000000 -1.000000 378.908048 22.676473)"
        text-anchor="middle"
        x="0.000000"
        y="6.451584"
><tspan font-family="sans-serif" font-style="normal" font-weight="normal">&#x7a;</tspan></text>
    </g>
    <g
      clip-path="url(#text-clipping0)"
      >
      <text
        dominant-baseline="no-change"
        fill="#FF0000"
        fill-opacity="1.000000"
        xml:space="preserve"
        font-size="16"
        transform="matrix(0.000000 1.000000 1.000000 -0.000000 37.794122 270.008240)"
        text-anchor="middle"
        x="0.000000"
        y="6.451584"
><tspan font-family="sans-serif" font-style="normal" font-weight="normal">&#x79;</tspan></text>
    </g>
    <polyline
      stroke-width="1.000000e+00"
      stroke="#FF0000"
      stroke-opacity="1.000000"
      fill="none"
      points="100.79,228.59 132.92,228.59 254.30,232.94 657.00,274.14 "/>
  </g>
</svg>
